<svg width="44" height="44" viewBox="0 0 44 44" fill="none" xmlns="http://www.w3.org/2000/svg">
<g id="Iconly/Bold/Filter">
<g id="Filter">
<path id="Filter_2" fill-rule="evenodd" clip-rule="evenodd" d="M16.2759 11.694C16.2759 15.1163 13.4547 17.8901 9.97134 17.8901C6.49007 17.8901 3.66675 15.1163 3.66675 11.694C3.66675 8.2738 6.49007 5.5 9.97134 5.5C13.4547 5.5 16.2759 8.2738 16.2759 11.694ZM37.5712 8.98026C39.0949 8.98026 40.3334 10.197 40.3334 11.694C40.3334 13.193 39.0949 14.4098 37.5712 14.4098H25.5161C23.9904 14.4098 22.7518 13.193 22.7518 11.694C22.7518 10.197 23.9904 8.98026 25.5161 8.98026H37.5712ZM6.43099 29.2563H18.4861C20.0118 29.2563 21.2504 30.4731 21.2504 31.9721C21.2504 33.469 20.0118 34.6878 18.4861 34.6878H6.43099C4.90526 34.6878 3.66675 33.469 3.66675 31.9721C3.66675 30.4731 4.90526 29.2563 6.43099 29.2563ZM34.0288 38.0926C37.5121 38.0926 40.3334 35.3188 40.3334 31.8985C40.3334 28.4763 37.5121 25.7025 34.0288 25.7025C30.5475 25.7025 27.7242 28.4763 27.7242 31.8985C27.7242 35.3188 30.5475 38.0926 34.0288 38.0926Z" fill="white"/>
</g>
</g>
</svg>
